<svg width="156" height="142" viewBox="0 0 156 142" fill="none" xmlns="http://www.w3.org/2000/svg">
<path fill-rule="evenodd" clip-rule="evenodd" d="M4 25.4302C5.052 25.4302 6.084 25.0042 6.828 24.2582C7.574 23.5142 8 22.4842 8 21.4302C8 20.3762 7.574 19.3462 6.828 18.6022C6.084 17.8562 5.052 17.4302 4 17.4302C2.946 17.4302 1.916 17.8562 1.17 18.6022C0.426 19.3462 0 20.3762 0 21.4302C0 22.4842 0.426 23.5142 1.17 24.2582C1.916 25.0042 2.946 25.4302 4 25.4302Z" fill="#130D3A"/>
<path fill-rule="evenodd" clip-rule="evenodd" d="M45.99 25.4302H46.01C48.2145 25.4302 50 23.6382 50 21.4302C50 19.2222 48.2145 17.4302 46.01 17.4302H45.99C43.7875 17.4302 42 19.2222 42 21.4302C42 23.6382 43.7875 25.4302 45.99 25.4302Z" fill="#130D3A"/>
<path fill-rule="evenodd" clip-rule="evenodd" d="M24.99 25.4302H25.01C27.2125 25.4302 29 23.6382 29 21.4302C29 19.2222 27.2125 17.4302 25.01 17.4302H24.99C22.7875 17.4302 21 19.2222 21 21.4302C21 23.6382 22.7875 25.4302 24.99 25.4302Z" fill="#130D3A"/>
<path fill-rule="evenodd" clip-rule="evenodd" d="M67 25.4302C68.052 25.4302 69.084 25.0042 69.828 24.2582C70.574 23.5142 71 22.4842 71 21.4302C71 20.3762 70.574 19.3462 69.828 18.6022C69.084 17.8562 68.052 17.4302 67 17.4302C65.946 17.4302 64.916 17.8562 64.17 18.6022C63.426 19.3462 63 20.3762 63 21.4302C63 22.4842 63.426 23.5142 64.17 24.2582C64.916 25.0042 65.946 25.4302 67 25.4302Z" fill="#130D3A"/>
<path fill-rule="evenodd" clip-rule="evenodd" d="M89 25.4302C90.054 25.4302 91.084 25.0042 91.83 24.2582C92.574 23.5142 93 22.4842 93 21.4302C93 20.3762 92.574 19.3462 91.83 18.6022C91.084 17.8562 90.054 17.4302 89 17.4302C87.948 17.4302 86.916 17.8562 86.172 18.6022C85.426 19.3462 85 20.3762 85 21.4302C85 22.4842 85.426 23.5142 86.172 24.2582C86.916 25.0042 87.948 25.4302 89 25.4302Z" fill="#130D3A"/>
<path fill-rule="evenodd" clip-rule="evenodd" d="M130.99 25.4302H131.01C133.214 25.4302 135 23.6382 135 21.4302C135 19.2222 133.214 17.4302 131.01 17.4302H130.99C128.788 17.4302 127 19.2222 127 21.4302C127 23.6382 128.788 25.4302 130.99 25.4302Z" fill="#130D3A"/>
<path fill-rule="evenodd" clip-rule="evenodd" d="M108.99 25.4302H109.01C111.212 25.4302 113 23.6382 113 21.4302C113 19.2222 111.212 17.4302 109.01 17.4302H108.99C106.788 17.4302 105 19.2222 105 21.4302C105 23.6382 106.788 25.4302 108.99 25.4302Z" fill="#130D3A"/>
<mask id="mask0_44_10230" style="mask-type:luminance" maskUnits="userSpaceOnUse" x="147" y="17" width="9" height="9">
<path fill-rule="evenodd" clip-rule="evenodd" d="M147.389 17.4149H155.617V25.4149H147.389V17.4149Z" fill="white"/>
</mask>
<g mask="url(#mask0_44_10230)">
<path fill-rule="evenodd" clip-rule="evenodd" d="M151.503 25.4149C152.586 25.4149 153.647 24.9889 154.412 24.2429C155.18 23.4989 155.618 22.4689 155.618 21.4149C155.618 20.3609 155.18 19.3309 154.412 18.5869C153.647 17.8409 152.586 17.4149 151.503 17.4149C150.419 17.4149 149.36 17.8409 148.593 18.5869C147.827 19.3309 147.389 20.3609 147.389 21.4149C147.389 22.4689 147.827 23.4989 148.593 24.2429C149.36 24.9889 150.419 25.4149 151.503 25.4149Z" fill="#130D3A"/>
</g>
<path fill-rule="evenodd" clip-rule="evenodd" d="M4 8.43018C5.052 8.43018 6.084 8.00418 6.828 7.25818C7.574 6.51418 8 5.48218 8 4.43018C8 3.37618 7.574 2.34618 6.828 1.60018C6.084 0.856176 5.052 0.430176 4 0.430176C2.946 0.430176 1.916 0.856176 1.17 1.60018C0.426 2.34618 0 3.37618 0 4.43018C0 5.48218 0.426 6.51418 1.17 7.25818C1.916 8.00418 2.946 8.43018 4 8.43018Z" fill="#130D3A"/>
<path fill-rule="evenodd" clip-rule="evenodd" d="M45.99 8.43018H46.01C48.2145 8.43018 50 6.63818 50 4.43018C50 2.22218 48.2145 0.430176 46.01 0.430176H45.99C43.7875 0.430176 42 2.22218 42 4.43018C42 6.63818 43.7875 8.43018 45.99 8.43018Z" fill="#130D3A"/>
<path fill-rule="evenodd" clip-rule="evenodd" d="M24.99 8.43018H25.01C27.2125 8.43018 29 6.63818 29 4.43018C29 2.22218 27.2125 0.430176 25.01 0.430176H24.99C22.7875 0.430176 21 2.22218 21 4.43018C21 6.63818 22.7875 8.43018 24.99 8.43018Z" fill="#130D3A"/>
<path fill-rule="evenodd" clip-rule="evenodd" d="M67 8.43018C68.052 8.43018 69.084 8.00418 69.828 7.25818C70.574 6.51418 71 5.48218 71 4.43018C71 3.37618 70.574 2.34618 69.828 1.60018C69.084 0.856176 68.052 0.430176 67 0.430176C65.946 0.430176 64.916 0.856176 64.17 1.60018C63.426 2.34618 63 3.37618 63 4.43018C63 5.48218 63.426 6.51418 64.17 7.25818C64.916 8.00418 65.946 8.43018 67 8.43018Z" fill="#130D3A"/>
<path fill-rule="evenodd" clip-rule="evenodd" d="M89 8.43018C90.054 8.43018 91.084 8.00418 91.83 7.25818C92.574 6.51418 93 5.48218 93 4.43018C93 3.37618 92.574 2.34618 91.83 1.60018C91.084 0.856176 90.054 0.430176 89 0.430176C87.948 0.430176 86.916 0.856176 86.172 1.60018C85.426 2.34618 85 3.37618 85 4.43018C85 5.48218 85.426 6.51418 86.172 7.25818C86.916 8.00418 87.948 8.43018 89 8.43018Z" fill="#130D3A"/>
<path fill-rule="evenodd" clip-rule="evenodd" d="M130.99 8.43018H131.01C133.214 8.43018 135 6.63818 135 4.43018C135 2.22218 133.214 0.430176 131.01 0.430176H130.99C128.788 0.430176 127 2.22218 127 4.43018C127 6.63818 128.788 8.43018 130.99 8.43018Z" fill="#130D3A"/>
<path fill-rule="evenodd" clip-rule="evenodd" d="M108.99 8.43018H109.01C111.212 8.43018 113 6.63818 113 4.43018C113 2.22218 111.212 0.430176 109.01 0.430176H108.99C106.788 0.430176 105 2.22218 105 4.43018C105 6.63818 106.788 8.43018 108.99 8.43018Z" fill="#130D3A"/>
<mask id="mask1_44_10230" style="mask-type:luminance" maskUnits="userSpaceOnUse" x="147" y="0" width="9" height="9">
<path fill-rule="evenodd" clip-rule="evenodd" d="M147.389 0H155.617V8.22857H147.389V0Z" fill="white"/>
</mask>
<g mask="url(#mask1_44_10230)">
<path fill-rule="evenodd" clip-rule="evenodd" d="M151.503 8.22857C152.586 8.22857 153.647 7.7904 154.412 7.02309C155.18 6.25783 155.618 5.19634 155.618 4.11429C155.618 3.03017 155.18 1.97074 154.412 1.20343C153.647 0.438172 152.586 0 151.503 0C150.419 0 149.36 0.438172 148.593 1.20343C147.827 1.97074 147.389 3.03017 147.389 4.11429C147.389 5.19634 147.827 6.25783 148.593 7.02309C149.36 7.7904 150.419 8.22857 151.503 8.22857Z" fill="#130D3A"/>
</g>
<path fill-rule="evenodd" clip-rule="evenodd" d="M4 41.4302C5.052 41.4302 6.084 41.0042 6.828 40.2582C7.574 39.5142 8 38.4842 8 37.4302C8 36.3782 7.574 35.3462 6.828 34.6022C6.084 33.8562 5.052 33.4302 4 33.4302C2.946 33.4302 1.916 33.8562 1.17 34.6022C0.426 35.3462 0 36.3782 0 37.4302C0 38.4842 0.426 39.5142 1.17 40.2582C1.916 41.0042 2.946 41.4302 4 41.4302Z" fill="#130D3A"/>
<path fill-rule="evenodd" clip-rule="evenodd" d="M45.99 41.4302H46.01C48.2145 41.4302 50 39.6382 50 37.4302C50 35.2222 48.2145 33.4302 46.01 33.4302H45.99C43.7875 33.4302 42 35.2222 42 37.4302C42 39.6382 43.7875 41.4302 45.99 41.4302Z" fill="#130D3A"/>
<path fill-rule="evenodd" clip-rule="evenodd" d="M24.99 41.4302H25.01C27.2125 41.4302 29 39.6382 29 37.4302C29 35.2222 27.2125 33.4302 25.01 33.4302H24.99C22.7875 33.4302 21 35.2222 21 37.4302C21 39.6382 22.7875 41.4302 24.99 41.4302Z" fill="#130D3A"/>
<path fill-rule="evenodd" clip-rule="evenodd" d="M67 41.4302C68.052 41.4302 69.084 41.0042 69.828 40.2582C70.574 39.5142 71 38.4842 71 37.4302C71 36.3782 70.574 35.3462 69.828 34.6022C69.084 33.8562 68.052 33.4302 67 33.4302C65.946 33.4302 64.916 33.8562 64.17 34.6022C63.426 35.3462 63 36.3782 63 37.4302C63 38.4842 63.426 39.5142 64.17 40.2582C64.916 41.0042 65.946 41.4302 67 41.4302Z" fill="#130D3A"/>
<path fill-rule="evenodd" clip-rule="evenodd" d="M89 41.4302C90.054 41.4302 91.084 41.0042 91.83 40.2582C92.574 39.5142 93 38.4842 93 37.4302C93 36.3782 92.574 35.3462 91.83 34.6022C91.084 33.8562 90.054 33.4302 89 33.4302C87.948 33.4302 86.916 33.8562 86.172 34.6022C85.426 35.3462 85 36.3782 85 37.4302C85 38.4842 85.426 39.5142 86.172 40.2582C86.916 41.0042 87.948 41.4302 89 41.4302Z" fill="#130D3A"/>
<path fill-rule="evenodd" clip-rule="evenodd" d="M130.99 41.4302H131.01C133.214 41.4302 135 39.6382 135 37.4302C135 35.2222 133.214 33.4302 131.01 33.4302H130.99C128.788 33.4302 127 35.2222 127 37.4302C127 39.6382 128.788 41.4302 130.99 41.4302Z" fill="#130D3A"/>
<path fill-rule="evenodd" clip-rule="evenodd" d="M108.99 41.4302H109.01C111.212 41.4302 113 39.6382 113 37.4302C113 35.2222 111.212 33.4302 109.01 33.4302H108.99C106.788 33.4302 105 35.2222 105 37.4302C105 39.6382 106.788 41.4302 108.99 41.4302Z" fill="#130D3A"/>
<mask id="mask2_44_10230" style="mask-type:luminance" maskUnits="userSpaceOnUse" x="147" y="33" width="9" height="9">
<path fill-rule="evenodd" clip-rule="evenodd" d="M147.389 33.6003H155.617V41.8289H147.389V33.6003Z" fill="white"/>
</mask>
<g mask="url(#mask2_44_10230)">
<path fill-rule="evenodd" clip-rule="evenodd" d="M151.503 41.8289C152.586 41.8289 153.647 41.3907 154.412 40.6234C155.18 39.8582 155.618 38.7987 155.618 37.7146C155.618 36.6326 155.18 35.5711 154.412 34.8058C153.647 34.0385 152.586 33.6003 151.503 33.6003C150.419 33.6003 149.36 34.0385 148.593 34.8058C147.827 35.5711 147.389 36.6326 147.389 37.7146C147.389 38.7987 147.827 39.8582 148.593 40.6234C149.36 41.3907 150.419 41.8289 151.503 41.8289Z" fill="#130D3A"/>
</g>
<path fill-rule="evenodd" clip-rule="evenodd" d="M4 58.4302C5.052 58.4302 6.084 58.0042 6.828 57.2582C7.574 56.5142 8 55.4842 8 54.4302C8 53.3762 7.574 52.3462 6.828 51.6022C6.084 50.8562 5.052 50.4302 4 50.4302C2.946 50.4302 1.916 50.8562 1.17 51.6022C0.426 52.3462 0 53.3762 0 54.4302C0 55.4842 0.426 56.5142 1.17 57.2582C1.916 58.0042 2.946 58.4302 4 58.4302Z" fill="#130D3A"/>
<path fill-rule="evenodd" clip-rule="evenodd" d="M45.99 58.4302H46.01C48.2145 58.4302 50 56.6382 50 54.4302C50 52.2222 48.2145 50.4302 46.01 50.4302H45.99C43.7875 50.4302 42 52.2222 42 54.4302C42 56.6382 43.7875 58.4302 45.99 58.4302Z" fill="#130D3A"/>
<path fill-rule="evenodd" clip-rule="evenodd" d="M24.99 58.4302H25.01C27.2125 58.4302 29 56.6382 29 54.4302C29 52.2222 27.2125 50.4302 25.01 50.4302H24.99C22.7875 50.4302 21 52.2222 21 54.4302C21 56.6382 22.7875 58.4302 24.99 58.4302Z" fill="#130D3A"/>
<path fill-rule="evenodd" clip-rule="evenodd" d="M67 58.4302C68.052 58.4302 69.084 58.0042 69.828 57.2582C70.574 56.5142 71 55.4842 71 54.4302C71 53.3762 70.574 52.3462 69.828 51.6022C69.084 50.8562 68.052 50.4302 67 50.4302C65.946 50.4302 64.916 50.8562 64.17 51.6022C63.426 52.3462 63 53.3762 63 54.4302C63 55.4842 63.426 56.5142 64.17 57.2582C64.916 58.0042 65.946 58.4302 67 58.4302Z" fill="#130D3A"/>
<path fill-rule="evenodd" clip-rule="evenodd" d="M89 58.4302C90.054 58.4302 91.084 58.0042 91.83 57.2582C92.574 56.5142 93 55.4842 93 54.4302C93 53.3762 92.574 52.3462 91.83 51.6022C91.084 50.8562 90.054 50.4302 89 50.4302C87.948 50.4302 86.916 50.8562 86.172 51.6022C85.426 52.3462 85 53.3762 85 54.4302C85 55.4842 85.426 56.5142 86.172 57.2582C86.916 58.0042 87.948 58.4302 89 58.4302Z" fill="#130D3A"/>
<path fill-rule="evenodd" clip-rule="evenodd" d="M130.99 58.4302H131.01C133.214 58.4302 135 56.6382 135 54.4302C135 52.2222 133.214 50.4302 131.01 50.4302H130.99C128.788 50.4302 127 52.2222 127 54.4302C127 56.6382 128.788 58.4302 130.99 58.4302Z" fill="#130D3A"/>
<path fill-rule="evenodd" clip-rule="evenodd" d="M108.99 58.4302H109.01C111.212 58.4302 113 56.6382 113 54.4302C113 52.2222 111.212 50.4302 109.01 50.4302H108.99C106.788 50.4302 105 52.2222 105 54.4302C105 56.6382 106.788 58.4302 108.99 58.4302Z" fill="#130D3A"/>
<mask id="mask3_44_10230" style="mask-type:luminance" maskUnits="userSpaceOnUse" x="147" y="51" width="9" height="9">
<path fill-rule="evenodd" clip-rule="evenodd" d="M147.389 51.0432H155.617V59.2718H147.389V51.0432Z" fill="white"/>
</mask>
<g mask="url(#mask3_44_10230)">
<path fill-rule="evenodd" clip-rule="evenodd" d="M151.503 59.2718C152.586 59.2718 153.647 58.8336 154.412 58.0663C155.18 57.301 155.618 56.2416 155.618 55.1575C155.618 54.0734 155.18 53.014 154.412 52.2487C153.647 51.4814 152.586 51.0432 151.503 51.0432C150.419 51.0432 149.36 51.4814 148.593 52.2487C147.827 53.014 147.389 54.0734 147.389 55.1575C147.389 56.2416 147.827 57.301 148.593 58.0663C149.36 58.8336 150.419 59.2718 151.503 59.2718Z" fill="#130D3A"/>
</g>
<path fill-rule="evenodd" clip-rule="evenodd" d="M4 75.4302C5.052 75.4302 6.084 75.0042 6.828 74.2582C7.574 73.5142 8 72.4842 8 71.4302C8 70.3782 7.574 69.3462 6.828 68.6022C6.084 67.8562 5.052 67.4302 4 67.4302C2.946 67.4302 1.916 67.8562 1.17 68.6022C0.426 69.3462 0 70.3782 0 71.4302C0 72.4842 0.426 73.5142 1.17 74.2582C1.916 75.0042 2.946 75.4302 4 75.4302Z" fill="#130D3A"/>
<path fill-rule="evenodd" clip-rule="evenodd" d="M45.99 75.4302H46.01C48.2145 75.4302 50 73.6382 50 71.4302C50 69.2222 48.2145 67.4302 46.01 67.4302H45.99C43.7875 67.4302 42 69.2222 42 71.4302C42 73.6382 43.7875 75.4302 45.99 75.4302Z" fill="#130D3A"/>
<path fill-rule="evenodd" clip-rule="evenodd" d="M24.99 75.4302H25.01C27.2125 75.4302 29 73.6382 29 71.4302C29 69.2222 27.2125 67.4302 25.01 67.4302H24.99C22.7875 67.4302 21 69.2222 21 71.4302C21 73.6382 22.7875 75.4302 24.99 75.4302Z" fill="#130D3A"/>
<path fill-rule="evenodd" clip-rule="evenodd" d="M67 75.4302C68.052 75.4302 69.084 75.0042 69.828 74.2582C70.574 73.5142 71 72.4842 71 71.4302C71 70.3782 70.574 69.3462 69.828 68.6022C69.084 67.8562 68.052 67.4302 67 67.4302C65.946 67.4302 64.916 67.8562 64.17 68.6022C63.426 69.3462 63 70.3782 63 71.4302C63 72.4842 63.426 73.5142 64.17 74.2582C64.916 75.0042 65.946 75.4302 67 75.4302Z" fill="#130D3A"/>
<path fill-rule="evenodd" clip-rule="evenodd" d="M89 75.4302C90.054 75.4302 91.084 75.0042 91.83 74.2582C92.574 73.5142 93 72.4842 93 71.4302C93 70.3782 92.574 69.3462 91.83 68.6022C91.084 67.8562 90.054 67.4302 89 67.4302C87.948 67.4302 86.916 67.8562 86.172 68.6022C85.426 69.3462 85 70.3782 85 71.4302C85 72.4842 85.426 73.5142 86.172 74.2582C86.916 75.0042 87.948 75.4302 89 75.4302Z" fill="#130D3A"/>
<path fill-rule="evenodd" clip-rule="evenodd" d="M130.99 75.4302H131.01C133.214 75.4302 135 73.6382 135 71.4302C135 69.2222 133.214 67.4302 131.01 67.4302H130.99C128.788 67.4302 127 69.2222 127 71.4302C127 73.6382 128.788 75.4302 130.99 75.4302Z" fill="#130D3A"/>
<path fill-rule="evenodd" clip-rule="evenodd" d="M108.99 75.4302H109.01C111.212 75.4302 113 73.6382 113 71.4302C113 69.2222 111.212 67.4302 109.01 67.4302H108.99C106.788 67.4302 105 69.2222 105 71.4302C105 73.6382 106.788 75.4302 108.99 75.4302Z" fill="#130D3A"/>
<mask id="mask4_44_10230" style="mask-type:luminance" maskUnits="userSpaceOnUse" x="147" y="66" width="9" height="9">
<path fill-rule="evenodd" clip-rule="evenodd" d="M147.389 66.7148H155.617V74.9434H147.389V66.7148Z" fill="white"/>
</mask>
<g mask="url(#mask4_44_10230)">
<path fill-rule="evenodd" clip-rule="evenodd" d="M151.503 74.9434C152.586 74.9434 153.647 74.5052 154.412 73.7379C155.18 72.9727 155.618 71.9132 155.618 70.8291C155.618 69.7471 155.18 68.6856 154.412 67.9203C153.647 67.153 152.586 66.7148 151.503 66.7148C150.419 66.7148 149.36 67.153 148.593 67.9203C147.827 68.6856 147.389 69.7471 147.389 70.8291C147.389 71.9132 147.827 72.9727 148.593 73.7379C149.36 74.5052 150.419 74.9434 151.503 74.9434Z" fill="#130D3A"/>
</g>
<path fill-rule="evenodd" clip-rule="evenodd" d="M4 92.4302C5.052 92.4302 6.084 92.0042 6.828 91.2602C7.574 90.5142 8 89.4842 8 88.4302C8 87.3782 7.574 86.3462 6.828 85.6022C6.084 84.8562 5.052 84.4302 4 84.4302C2.946 84.4302 1.916 84.8562 1.17 85.6022C0.426 86.3462 0 87.3782 0 88.4302C0 89.4842 0.426 90.5142 1.17 91.2602C1.916 92.0042 2.946 92.4302 4 92.4302Z" fill="#130D3A"/>
<path fill-rule="evenodd" clip-rule="evenodd" d="M45.99 92.4302H46.01C48.2145 92.4302 50 90.6382 50 88.4302C50 86.2222 48.2145 84.4302 46.01 84.4302H45.99C43.7875 84.4302 42 86.2222 42 88.4302C42 90.6382 43.7875 92.4302 45.99 92.4302Z" fill="#130D3A"/>
<path fill-rule="evenodd" clip-rule="evenodd" d="M24.99 92.4302H25.01C27.2125 92.4302 29 90.6382 29 88.4302C29 86.2222 27.2125 84.4302 25.01 84.4302H24.99C22.7875 84.4302 21 86.2222 21 88.4302C21 90.6382 22.7875 92.4302 24.99 92.4302Z" fill="#130D3A"/>
<path fill-rule="evenodd" clip-rule="evenodd" d="M67 92.4302C68.052 92.4302 69.084 92.0042 69.828 91.2602C70.574 90.5142 71 89.4842 71 88.4302C71 87.3782 70.574 86.3462 69.828 85.6022C69.084 84.8562 68.052 84.4302 67 84.4302C65.946 84.4302 64.916 84.8562 64.17 85.6022C63.426 86.3462 63 87.3782 63 88.4302C63 89.4842 63.426 90.5142 64.17 91.2602C64.916 92.0042 65.946 92.4302 67 92.4302Z" fill="#130D3A"/>
<path fill-rule="evenodd" clip-rule="evenodd" d="M89 92.4302C90.054 92.4302 91.084 92.0042 91.83 91.2602C92.574 90.5142 93 89.4842 93 88.4302C93 87.3782 92.574 86.3462 91.83 85.6022C91.084 84.8562 90.054 84.4302 89 84.4302C87.948 84.4302 86.916 84.8562 86.172 85.6022C85.426 86.3462 85 87.3782 85 88.4302C85 89.4842 85.426 90.5142 86.172 91.2602C86.916 92.0042 87.948 92.4302 89 92.4302Z" fill="#130D3A"/>
<path fill-rule="evenodd" clip-rule="evenodd" d="M130.99 92.4302H131.01C133.214 92.4302 135 90.6382 135 88.4302C135 86.2222 133.214 84.4302 131.01 84.4302H130.99C128.788 84.4302 127 86.2222 127 88.4302C127 90.6382 128.788 92.4302 130.99 92.4302Z" fill="#130D3A"/>
<path fill-rule="evenodd" clip-rule="evenodd" d="M108.99 92.4302H109.01C111.212 92.4302 113 90.6382 113 88.4302C113 86.2222 111.212 84.4302 109.01 84.4302H108.99C106.788 84.4302 105 86.2222 105 88.4302C105 90.6382 106.788 92.4302 108.99 92.4302Z" fill="#130D3A"/>
<mask id="mask5_44_10230" style="mask-type:luminance" maskUnits="userSpaceOnUse" x="147" y="84" width="9" height="9">
<path fill-rule="evenodd" clip-rule="evenodd" d="M147.389 84.1577H155.617V92.3863H147.389V84.1577Z" fill="white"/>
</mask>
<g mask="url(#mask5_44_10230)">
<path fill-rule="evenodd" clip-rule="evenodd" d="M151.503 92.3863C152.586 92.3863 153.647 91.9481 154.412 91.1829C155.18 90.4155 155.618 89.3561 155.618 88.272C155.618 87.1899 155.18 86.1285 154.412 85.3632C153.647 84.5959 152.586 84.1577 151.503 84.1577C150.419 84.1577 149.36 84.5959 148.593 85.3632C147.827 86.1285 147.389 87.1899 147.389 88.272C147.389 89.3561 147.827 90.4155 148.593 91.1829C149.36 91.9481 150.419 92.3863 151.503 92.3863Z" fill="#130D3A"/>
</g>
<path fill-rule="evenodd" clip-rule="evenodd" d="M4 108.43C5.052 108.43 6.084 108.004 6.828 107.258C7.574 106.514 8 105.484 8 104.43C8 103.378 7.574 102.346 6.828 101.602C6.084 100.856 5.052 100.43 4 100.43C2.946 100.43 1.916 100.856 1.17 101.602C0.426 102.346 0 103.378 0 104.43C0 105.484 0.426 106.514 1.17 107.258C1.916 108.004 2.946 108.43 4 108.43Z" fill="#130D3A"/>
<path fill-rule="evenodd" clip-rule="evenodd" d="M45.99 108.43H46.01C48.2145 108.43 50 106.638 50 104.43C50 102.222 48.2145 100.43 46.01 100.43H45.99C43.7875 100.43 42 102.222 42 104.43C42 106.638 43.7875 108.43 45.99 108.43Z" fill="#130D3A"/>
<path fill-rule="evenodd" clip-rule="evenodd" d="M24.99 108.43H25.01C27.2125 108.43 29 106.638 29 104.43C29 102.222 27.2125 100.43 25.01 100.43H24.99C22.7875 100.43 21 102.222 21 104.43C21 106.638 22.7875 108.43 24.99 108.43Z" fill="#130D3A"/>
<path fill-rule="evenodd" clip-rule="evenodd" d="M67 108.43C68.052 108.43 69.084 108.004 69.828 107.258C70.574 106.514 71 105.484 71 104.43C71 103.378 70.574 102.346 69.828 101.602C69.084 100.856 68.052 100.43 67 100.43C65.946 100.43 64.916 100.856 64.17 101.602C63.426 102.346 63 103.378 63 104.43C63 105.484 63.426 106.514 64.17 107.258C64.916 108.004 65.946 108.43 67 108.43Z" fill="#130D3A"/>
<path fill-rule="evenodd" clip-rule="evenodd" d="M89 108.43C90.054 108.43 91.084 108.004 91.83 107.258C92.574 106.514 93 105.484 93 104.43C93 103.378 92.574 102.346 91.83 101.602C91.084 100.856 90.054 100.43 89 100.43C87.948 100.43 86.916 100.856 86.172 101.602C85.426 102.346 85 103.378 85 104.43C85 105.484 85.426 106.514 86.172 107.258C86.916 108.004 87.948 108.43 89 108.43Z" fill="#130D3A"/>
<path fill-rule="evenodd" clip-rule="evenodd" d="M130.99 108.43H131.01C133.214 108.43 135 106.638 135 104.43C135 102.222 133.214 100.43 131.01 100.43H130.99C128.788 100.43 127 102.222 127 104.43C127 106.638 128.788 108.43 130.99 108.43Z" fill="#130D3A"/>
<path fill-rule="evenodd" clip-rule="evenodd" d="M108.99 108.43H109.01C111.212 108.43 113 106.638 113 104.43C113 102.222 111.212 100.43 109.01 100.43H108.99C106.788 100.43 105 102.222 105 104.43C105 106.638 106.788 108.43 108.99 108.43Z" fill="#130D3A"/>
<mask id="mask6_44_10230" style="mask-type:luminance" maskUnits="userSpaceOnUse" x="147" y="100" width="9" height="9">
<path fill-rule="evenodd" clip-rule="evenodd" d="M147.389 100.568H155.617V108.568H147.389V100.568Z" fill="white"/>
</mask>
<g mask="url(#mask6_44_10230)">
<path fill-rule="evenodd" clip-rule="evenodd" d="M151.503 108.568C152.586 108.568 153.647 108.142 154.412 107.396C155.18 106.652 155.618 105.622 155.618 104.568C155.618 103.516 155.18 102.484 154.412 101.74C153.647 100.994 152.586 100.568 151.503 100.568C150.419 100.568 149.36 100.994 148.593 101.74C147.827 102.484 147.389 103.516 147.389 104.568C147.389 105.622 147.827 106.652 148.593 107.396C149.36 108.142 150.419 108.568 151.503 108.568Z" fill="#130D3A"/>
</g>
<path fill-rule="evenodd" clip-rule="evenodd" d="M4 125.43C5.052 125.43 6.084 125.004 6.828 124.26C7.574 123.514 8 122.484 8 121.43C8 120.378 7.574 119.346 6.828 118.602C6.084 117.856 5.052 117.43 4 117.43C2.946 117.43 1.916 117.856 1.17 118.602C0.426 119.346 0 120.378 0 121.43C0 122.484 0.426 123.514 1.17 124.26C1.916 125.004 2.946 125.43 4 125.43Z" fill="#130D3A"/>
<path fill-rule="evenodd" clip-rule="evenodd" d="M45.99 125.43H46.01C48.2145 125.43 50 123.64 50 121.43C50 119.222 48.2145 117.43 46.01 117.43H45.99C43.7875 117.43 42 119.222 42 121.43C42 123.64 43.7875 125.43 45.99 125.43Z" fill="#130D3A"/>
<path fill-rule="evenodd" clip-rule="evenodd" d="M24.99 125.43H25.01C27.2125 125.43 29 123.64 29 121.43C29 119.222 27.2125 117.43 25.01 117.43H24.99C22.7875 117.43 21 119.222 21 121.43C21 123.64 22.7875 125.43 24.99 125.43Z" fill="#130D3A"/>
<path fill-rule="evenodd" clip-rule="evenodd" d="M67 125.43C68.052 125.43 69.084 125.004 69.828 124.26C70.574 123.514 71 122.484 71 121.43C71 120.378 70.574 119.346 69.828 118.602C69.084 117.856 68.052 117.43 67 117.43C65.946 117.43 64.916 117.856 64.17 118.602C63.426 119.346 63 120.378 63 121.43C63 122.484 63.426 123.514 64.17 124.26C64.916 125.004 65.946 125.43 67 125.43Z" fill="#130D3A"/>
<path fill-rule="evenodd" clip-rule="evenodd" d="M89 125.43C90.054 125.43 91.084 125.004 91.83 124.26C92.574 123.514 93 122.484 93 121.43C93 120.378 92.574 119.346 91.83 118.602C91.084 117.856 90.054 117.43 89 117.43C87.948 117.43 86.916 117.856 86.172 118.602C85.426 119.346 85 120.378 85 121.43C85 122.484 85.426 123.514 86.172 124.26C86.916 125.004 87.948 125.43 89 125.43Z" fill="#130D3A"/>
<path fill-rule="evenodd" clip-rule="evenodd" d="M130.99 125.43H131.01C133.214 125.43 135 123.64 135 121.43C135 119.222 133.214 117.43 131.01 117.43H130.99C128.788 117.43 127 119.222 127 121.43C127 123.64 128.788 125.43 130.99 125.43Z" fill="#130D3A"/>
<path fill-rule="evenodd" clip-rule="evenodd" d="M108.99 125.43H109.01C111.212 125.43 113 123.64 113 121.43C113 119.222 111.212 117.43 109.01 117.43H108.99C106.788 117.43 105 119.222 105 121.43C105 123.64 106.788 125.43 108.99 125.43Z" fill="#130D3A"/>
<mask id="mask7_44_10230" style="mask-type:luminance" maskUnits="userSpaceOnUse" x="147" y="117" width="9" height="9">
<path fill-rule="evenodd" clip-rule="evenodd" d="M147.389 117.758H155.617V125.987H147.389V117.758Z" fill="white"/>
</mask>
<g mask="url(#mask7_44_10230)">
<path fill-rule="evenodd" clip-rule="evenodd" d="M151.503 125.987C152.586 125.987 153.647 125.548 154.412 124.783C155.18 124.016 155.618 122.956 155.618 121.872C155.618 120.79 155.18 119.729 154.412 118.964C153.647 118.196 152.586 117.758 151.503 117.758C150.419 117.758 149.36 118.196 148.593 118.964C147.827 119.729 147.389 120.79 147.389 121.872C147.389 122.956 147.827 124.016 148.593 124.783C149.36 125.548 150.419 125.987 151.503 125.987Z" fill="#130D3A"/>
</g>
<mask id="mask8_44_10230" style="mask-type:luminance" maskUnits="userSpaceOnUse" x="0" y="133" width="9" height="9">
<path fill-rule="evenodd" clip-rule="evenodd" d="M0.000366211 133.431H8.00037V141.43H0.000366211V133.431Z" fill="white"/>
</mask>
<g mask="url(#mask8_44_10230)">
<path fill-rule="evenodd" clip-rule="evenodd" d="M4.00037 141.431C5.05237 141.431 6.08437 141.005 6.82837 140.259C7.57437 139.515 8.00037 138.483 8.00037 137.431C8.00037 136.377 7.57437 135.347 6.82837 134.601C6.08437 133.857 5.05237 133.431 4.00037 133.431C2.94637 133.431 1.91637 133.857 1.17037 134.601C0.426366 135.347 0.000366211 136.377 0.000366211 137.431C0.000366211 138.483 0.426366 139.515 1.17037 140.259C1.91637 141.005 2.94637 141.431 4.00037 141.431Z" fill="#130D3A"/>
</g>
<mask id="mask9_44_10230" style="mask-type:luminance" maskUnits="userSpaceOnUse" x="42" y="133" width="9" height="9">
<path fill-rule="evenodd" clip-rule="evenodd" d="M42.2406 133.431H50.2606V141.43H42.2406V133.431Z" fill="white"/>
</mask>
<g mask="url(#mask9_44_10230)">
<path fill-rule="evenodd" clip-rule="evenodd" d="M46.2406 141.431H46.2606C48.4706 141.431 50.2606 139.639 50.2606 137.431C50.2606 135.221 48.4706 133.431 46.2606 133.431H46.2406C44.0326 133.431 42.2406 135.221 42.2406 137.431C42.2406 139.639 44.0326 141.431 46.2406 141.431Z" fill="#130D3A"/>
</g>
<mask id="mask10_44_10230" style="mask-type:luminance" maskUnits="userSpaceOnUse" x="20" y="133" width="9" height="9">
<path fill-rule="evenodd" clip-rule="evenodd" d="M20.6332 133.431H28.8823V141.43H20.6332V133.431Z" fill="white"/>
</mask>
<g mask="url(#mask10_44_10230)">
<path fill-rule="evenodd" clip-rule="evenodd" d="M24.7475 141.431H24.768C27.0391 141.431 28.8823 139.639 28.8823 137.431C28.8823 135.221 27.0391 133.431 24.768 133.431H24.7475C22.4764 133.431 20.6332 135.221 20.6332 137.431C20.6332 139.639 22.4764 141.431 24.7475 141.431Z" fill="#130D3A"/>
</g>
<mask id="mask11_44_10230" style="mask-type:luminance" maskUnits="userSpaceOnUse" x="62" y="133" width="9" height="9">
<path fill-rule="evenodd" clip-rule="evenodd" d="M62.6443 133.431H70.8729V141.43H62.6443V133.431Z" fill="white"/>
</mask>
<g mask="url(#mask11_44_10230)">
<path fill-rule="evenodd" clip-rule="evenodd" d="M66.7586 141.431C67.8406 141.431 68.9021 141.005 69.6674 140.259C70.4347 139.515 70.8729 138.483 70.8729 137.431C70.8729 136.377 70.4347 135.347 69.6674 134.601C68.9021 133.857 67.8406 133.431 66.7586 133.431C65.6745 133.431 64.615 133.857 63.8477 134.601C63.0825 135.347 62.6443 136.377 62.6443 137.431C62.6443 138.483 63.0825 139.515 63.8477 140.259C64.615 141.005 65.6745 141.431 66.7586 141.431Z" fill="#130D3A"/>
</g>
<mask id="mask12_44_10230" style="mask-type:luminance" maskUnits="userSpaceOnUse" x="84" y="133" width="9" height="9">
<path fill-rule="evenodd" clip-rule="evenodd" d="M84.5157 133.431H92.7443V141.43H84.5157V133.431Z" fill="white"/>
</mask>
<g mask="url(#mask12_44_10230)">
<path fill-rule="evenodd" clip-rule="evenodd" d="M88.63 141.431C89.7141 141.431 90.7736 141.005 91.5409 140.259C92.3061 139.515 92.7443 138.483 92.7443 137.431C92.7443 136.377 92.3061 135.347 91.5409 134.601C90.7736 133.857 89.7141 133.431 88.63 133.431C87.548 133.431 86.4865 133.857 85.7212 134.601C84.9539 135.347 84.5157 136.377 84.5157 137.431C84.5157 138.483 84.9539 139.515 85.7212 140.259C86.4865 141.005 87.548 141.431 88.63 141.431Z" fill="#130D3A"/>
</g>
<mask id="mask13_44_10230" style="mask-type:luminance" maskUnits="userSpaceOnUse" x="126" y="133" width="9" height="9">
<path fill-rule="evenodd" clip-rule="evenodd" d="M126.507 133.431H134.756V141.43H126.507V133.431Z" fill="white"/>
</mask>
<g mask="url(#mask13_44_10230)">
<path fill-rule="evenodd" clip-rule="evenodd" d="M130.621 141.431H130.642C132.915 141.431 134.756 139.639 134.756 137.431C134.756 135.221 132.915 133.431 130.642 133.431H130.621C128.35 133.431 126.507 135.221 126.507 137.431C126.507 139.639 128.35 141.431 130.621 141.431Z" fill="#130D3A"/>
</g>
<mask id="mask14_44_10230" style="mask-type:luminance" maskUnits="userSpaceOnUse" x="105" y="133" width="9" height="9">
<path fill-rule="evenodd" clip-rule="evenodd" d="M105.118 133.431H113.138V141.43H105.118V133.431Z" fill="white"/>
</mask>
<g mask="url(#mask14_44_10230)">
<path fill-rule="evenodd" clip-rule="evenodd" d="M109.118 141.431H109.138C111.346 141.431 113.138 139.639 113.138 137.431C113.138 135.221 111.346 133.431 109.138 133.431H109.118C106.91 133.431 105.118 135.221 105.118 137.431C105.118 139.639 106.91 141.431 109.118 141.431Z" fill="#130D3A"/>
</g>
<mask id="mask15_44_10230" style="mask-type:luminance" maskUnits="userSpaceOnUse" x="147" y="133" width="9" height="9">
<path fill-rule="evenodd" clip-rule="evenodd" d="M147.389 133.431H155.617V141.43H147.389V133.431Z" fill="white"/>
</mask>
<g mask="url(#mask15_44_10230)">
<path fill-rule="evenodd" clip-rule="evenodd" d="M151.503 141.431C152.586 141.431 153.647 141.005 154.412 140.259C155.18 139.515 155.618 138.483 155.618 137.431C155.618 136.377 155.18 135.347 154.412 134.601C153.647 133.857 152.586 133.431 151.503 133.431C150.419 133.431 149.36 133.857 148.593 134.601C147.827 135.347 147.389 136.377 147.389 137.431C147.389 138.483 147.827 139.515 148.593 140.259C149.36 141.005 150.419 141.431 151.503 141.431Z" fill="#130D3A"/>
</g>
</svg>
