<svg width="40" height="42" viewBox="0 0 40 42" fill="none" xmlns="http://www.w3.org/2000/svg">
<path opacity="0.4" d="M9.72976 7.56757C9.1327 7.56757 8.64868 7.19111 8.64868 6.72673V0.840841C8.64868 0.376457 9.1327 0 9.72976 0C10.3268 0 10.8108 0.376457 10.8108 0.840841V6.72673C10.8108 7.19111 10.3268 7.56757 9.72976 7.56757Z" fill="#68D585"/>
<path opacity="0.4" d="M29.1892 7.56757C28.5922 7.56757 28.1082 7.19111 28.1082 6.72673V0.840841C28.1082 0.376457 28.5922 0 29.1892 0C29.7863 0 30.2703 0.376457 30.2703 0.840841V6.72673C30.2703 7.19111 29.7863 7.56757 29.1892 7.56757Z" fill="#68D585"/>
<path opacity="0.4" d="M22.4889 36.074H2.65356C2.16506 36.074 1.76904 35.6791 1.76904 35.1921V14.9076C1.76904 14.4205 2.16506 14.0256 2.65356 14.0256H36.2654C36.7539 14.0256 37.1499 14.4205 37.1499 14.9076V25.3029C37.7961 25.7251 38.39 26.2222 38.9189 26.7837V6.08821C38.9189 5.11405 38.1269 4.32434 37.1499 4.32434H31.8428V7.85208C31.8428 9.31332 30.6547 10.4979 29.1892 10.4979C27.7237 10.4979 26.5356 9.31332 26.5356 7.85208V4.32434H12.3833V7.85208C12.3833 9.31332 11.1953 10.4979 9.72973 10.4979C8.26421 10.4979 7.07617 9.31332 7.07617 7.85208V4.32434H1.76904C0.792027 4.32434 0 5.11405 0 6.08821V36.074C0 37.0481 0.792027 37.8379 1.76904 37.8379H23.1833C22.8941 37.2741 22.6615 36.6833 22.4889 36.074Z" fill="#68D585"/>
<path fill-rule="evenodd" clip-rule="evenodd" d="M40 32.973C40 37.451 36.3699 41.0811 31.8919 41.0811C27.4139 41.0811 23.7838 37.451 23.7838 32.973C23.7838 28.495 27.4139 24.8649 31.8919 24.8649C36.3699 24.8649 40 28.495 40 32.973ZM31.8919 27.5676C31.3944 27.5676 30.991 27.9709 30.991 28.4685V32.973C30.991 33.4705 31.3944 33.8739 31.8919 33.8739H36.3964C36.894 33.8739 37.2973 33.4705 37.2973 32.973C37.2973 32.4754 36.894 32.0721 36.3964 32.0721H32.7928V28.4685C32.7928 27.9709 32.3895 27.5676 31.8919 27.5676Z" fill="#68D585"/>
</svg>
